<svg version="1.1" id="Layer_1" xmlns="http://www.w3.org/2000/svg" xmlns:xlink="http://www.w3.org/1999/xlink" x="0px" y="0px" viewBox="0 0 100.5 100.5" style="enable-background:new 0 0 100.5 100.5;" xml:space="preserve">
<path d="M82.841,19.004h-8.173v-1.451c0-2.889-2.347-5.239-5.231-5.239c-2.893,0-5.246,2.351-5.246,5.239v1.451h-8.964v-1.451
	c0-2.889-2.35-5.239-5.238-5.239c-2.892,0-5.245,2.351-5.245,5.239v1.451H35.78v-1.451c0-2.889-2.35-5.239-5.238-5.239
	c-2.889,0-5.239,2.351-5.239,5.239v1.451h-8.144c-0.829,0-1.5,0.672-1.5,1.5v65.684c0,0.828,0.671,1.5,1.5,1.5h65.683
	c0.829,0,1.5-0.672,1.5-1.5V20.504C84.341,19.676,83.67,19.004,82.841,19.004z M67.19,17.553c0-1.234,1.008-2.239,2.246-2.239
	c1.23,0,2.231,1.005,2.231,2.239v6.99c0,1.235-1.001,2.24-2.231,2.24c-1.238,0-2.246-1.005-2.246-2.24V17.553z M47.744,17.553
	c0-1.234,1.007-2.239,2.245-2.239c1.234,0,2.238,1.005,2.238,2.239v6.99c0,1.235-1.004,2.24-2.238,2.24
	c-1.238,0-2.245-1.005-2.245-2.24V17.553z M28.303,17.553c0-1.234,1.004-2.239,2.239-2.239c1.234,0,2.238,1.005,2.238,2.239v6.99
	c0,1.235-1.004,2.24-2.238,2.24c-1.234,0-2.239-1.005-2.239-2.24V17.553z M81.341,84.687H18.658V22.003h6.644v2.539
	c0,2.89,2.35,5.24,5.239,5.24c2.888,0,5.238-2.351,5.238-5.24v-2.539h8.964v2.539c0,2.89,2.353,5.24,5.245,5.24
	c2.888,0,5.238-2.351,5.238-5.24v-2.539h8.964v2.539c0,2.89,2.354,5.24,5.246,5.24c2.885,0,5.231-2.351,5.231-5.24v-2.539h6.673
	v62.684H81.341z" id="id_101" style="fill: rgb(255, 255, 255);"></path>
<path d="M68.187,43.654c-0.657-0.503-1.599-0.38-2.103,0.28L47.355,68.408l-12.402-15.25c-0.522-0.643-1.468-0.74-2.11-0.218
	c-0.643,0.523-0.74,1.468-0.217,2.11l13.601,16.726c0.285,0.351,0.712,0.554,1.164,0.554c0.007,0,0.015,0,0.022,0
	c0.459-0.007,0.89-0.224,1.169-0.589l19.885-25.984C68.97,45.1,68.845,44.158,68.187,43.654z" id="id_102" style="fill: rgb(255, 255, 255);"></path>
</svg>