<svg version="1.1" id="Layer_1" xmlns="http://www.w3.org/2000/svg" xmlns:xlink="http://www.w3.org/1999/xlink" x="0px" y="0px" width="212.795px" height="220.59px" viewBox="0 0 212.795 220.59" enable-background="new 0 0 212.795 220.59" xml:space="preserve">
<path fill="#fafafa" d="M180.718,209.453H47.959c-3.601,0-6.531-2.93-6.531-6.53v-11.891c0-1.104,0.896-2,2-2h8.31
	c0.896,0,1.625-0.729,1.625-1.625c0-0.896-0.729-1.624-1.625-1.624h-8.31c-1.104,0-2-0.896-2-2v-18.124c0-1.104,0.896-2,2-2h8.31
	c0.896,0,1.625-0.729,1.625-1.625s-0.729-1.625-1.625-1.625h-8.31c-1.104,0-2-0.896-2-2v-18.124c0-1.104,0.896-2,2-2h8.31
	c0.896,0,1.625-0.729,1.625-1.625s-0.729-1.625-1.625-1.625h-8.31c-1.104,0-2-0.896-2-2v-18.124c0-1.104,0.896-2,2-2h8.31
	c0.896,0,1.625-0.729,1.625-1.625c0-0.896-0.729-1.624-1.625-1.624h-8.31c-1.104,0-2-0.896-2-2V89.537c0-1.104,0.896-2,2-2h8.31
	c0.896,0,1.625-0.729,1.625-1.624c0-0.896-0.729-1.625-1.625-1.625h-8.31c-1.104,0-2-0.896-2-2V64.164c0-1.104,0.896-2,2-2h8.31
	c0.896,0,1.625-0.729,1.625-1.625s-0.729-1.625-1.625-1.625h-8.31c-1.104,0-2-0.896-2-2V38.79c0-1.104,0.896-2,2-2h8.31
	c0.896,0,1.625-0.729,1.625-1.625c0-0.896-0.729-1.624-1.625-1.624h-8.31c-1.104,0-2-0.896-2-2v-11.89
	c0-3.601,2.93-6.531,6.531-6.531h132.759c3.602,0,6.531,2.931,6.531,6.531v183.271C187.249,206.523,184.319,209.453,180.718,209.453
	 M45.428,193.032v9.891c0,1.395,1.135,2.53,2.531,2.53h132.759c1.396,0,2.531-1.136,2.531-2.53V19.651
	c0-1.395-1.135-2.531-2.531-2.531H47.959c-1.396,0-2.531,1.137-2.531,2.531v9.89h6.31c3.102,0,5.625,2.522,5.625,5.624
	s-2.523,5.625-5.625,5.625h-6.31v14.124h6.31c3.102,0,5.625,2.523,5.625,5.625s-2.523,5.625-5.625,5.625h-6.31v14.124h6.31
	c3.102,0,5.625,2.523,5.625,5.625s-2.523,5.624-5.625,5.624h-6.31v14.125h6.31c3.102,0,5.625,2.522,5.625,5.624
	s-2.523,5.625-5.625,5.625h-6.31v14.124h6.31c3.102,0,5.625,2.523,5.625,5.625s-2.523,5.625-5.625,5.625h-6.31v14.124h6.31
	c3.102,0,5.625,2.523,5.625,5.625c0,3.103-2.523,5.625-5.625,5.625h-6.31v14.124h6.31c3.102,0,5.625,2.522,5.625,5.624
	c0,3.103-2.523,5.625-5.625,5.625H45.428z" id="id_101"></path>
<path fill="#ffffff" d="M153.535,101.62H75.148c-3.602,0-6.531-2.931-6.531-6.532V61.257c0-3.601,2.929-6.531,6.531-6.531h78.387
	c3.602,0,6.53,2.931,6.53,6.531v33.831C160.065,98.689,157.137,101.62,153.535,101.62 M75.148,58.726
	c-1.396,0-2.531,1.136-2.531,2.531v33.831c0,1.396,1.135,2.532,2.531,2.532h78.387c1.396,0,2.53-1.137,2.53-2.532V61.257
	c0-1.396-1.135-2.531-2.53-2.531H75.148z" id="id_102"></path>
<path fill="#ffffff" d="M153.535,144.513H75.148c-3.602,0-6.531-2.929-6.531-6.531v-12.385c0-3.6,2.929-6.53,6.531-6.53h78.387
	c3.602,0,6.53,2.931,6.53,6.53v12.385C160.065,141.584,157.137,144.513,153.535,144.513 M75.148,123.066
	c-1.396,0-2.531,1.135-2.531,2.53v12.385c0,1.396,1.135,2.531,2.531,2.531h78.387c1.396,0,2.53-1.135,2.53-2.531v-12.385
	c0-1.396-1.135-2.53-2.53-2.53H75.148z" id="id_103"></path>
<path fill="#ffffff" d="M51.738,193.032H35.127c-3.102,0-5.625-2.522-5.625-5.625c0-3.102,2.523-5.624,5.625-5.624h16.611
	c3.101,0,5.624,2.522,5.624,5.624C57.362,190.51,54.839,193.032,51.738,193.032 M35.127,185.783c-0.896,0-1.625,0.729-1.625,1.624
	c0,0.897,0.729,1.625,1.625,1.625h16.611c0.896,0,1.624-0.728,1.624-1.625c0-0.895-0.728-1.624-1.624-1.624H35.127z" id="id_104"></path>
<path fill="#ffffff" d="M51.738,167.659H35.127c-3.102,0-5.625-2.522-5.625-5.625c0-3.102,2.523-5.625,5.625-5.625h16.611
	c3.101,0,5.624,2.523,5.624,5.625C57.362,165.137,54.839,167.659,51.738,167.659 M35.127,160.409c-0.896,0-1.625,0.729-1.625,1.625
	c0,0.896,0.729,1.625,1.625,1.625h16.611c0.896,0,1.624-0.729,1.624-1.625c0-0.896-0.728-1.625-1.624-1.625H35.127z" id="id_105"></path>
<path fill="#ffffff" d="M51.738,142.285H35.127c-3.102,0-5.625-2.522-5.625-5.625c0-3.102,2.523-5.625,5.625-5.625h16.611
	c3.101,0,5.624,2.523,5.624,5.625C57.362,139.763,54.839,142.285,51.738,142.285 M35.127,135.035c-0.896,0-1.625,0.729-1.625,1.625
	c0,0.896,0.729,1.625,1.625,1.625h16.611c0.896,0,1.624-0.729,1.624-1.625c0-0.896-0.728-1.625-1.624-1.625H35.127z" id="id_106"></path>
<path fill="#ffffff" d="M51.738,116.911H35.127c-3.102,0-5.625-2.522-5.625-5.625c0-3.102,2.523-5.624,5.625-5.624h16.611
	c3.101,0,5.624,2.522,5.624,5.624C57.362,114.389,54.839,116.911,51.738,116.911 M35.127,109.662c-0.896,0-1.625,0.729-1.625,1.624
	c0,0.897,0.729,1.625,1.625,1.625h16.611c0.896,0,1.624-0.728,1.624-1.625c0-0.895-0.728-1.624-1.624-1.624H35.127z" id="id_107"></path>
<path fill="#ffffff" d="M51.738,91.537H35.127c-3.102,0-5.625-2.521-5.625-5.624c0-3.102,2.523-5.625,5.625-5.625h16.611
	c3.101,0,5.624,2.523,5.624,5.625C57.362,89.016,54.839,91.537,51.738,91.537 M35.127,84.288c-0.896,0-1.625,0.729-1.625,1.625
	c0,0.896,0.729,1.624,1.625,1.624h16.611c0.896,0,1.624-0.728,1.624-1.624c0-0.896-0.728-1.625-1.624-1.625H35.127z" id="id_108"></path>
<path fill="#ffffff" d="M51.738,66.164H35.127c-3.102,0-5.625-2.522-5.625-5.625c0-3.102,2.523-5.625,5.625-5.625h16.611
	c3.101,0,5.624,2.523,5.624,5.625C57.362,63.642,54.839,66.164,51.738,66.164 M35.127,58.914c-0.896,0-1.625,0.729-1.625,1.625
	c0,0.896,0.729,1.625,1.625,1.625h16.611c0.896,0,1.624-0.729,1.624-1.625c0-0.896-0.728-1.625-1.624-1.625H35.127z" id="id_109"></path>
<path fill="#ffffff" d="M51.738,40.79H35.127c-3.102,0-5.625-2.522-5.625-5.625c0-3.102,2.523-5.624,5.625-5.624h16.611
	c3.101,0,5.624,2.522,5.624,5.624C57.362,38.268,54.839,40.79,51.738,40.79 M35.127,33.541c-0.896,0-1.625,0.729-1.625,1.624
	c0,0.897,0.729,1.625,1.625,1.625h16.611c0.896,0,1.624-0.728,1.624-1.625c0-0.895-0.728-1.624-1.624-1.624H35.127z" id="id_110"></path>
</svg>