<svg xmlns="http://www.w3.org/2000/svg" xml:space="preserve" width="1.70666in" height="1.70666in" version="1.1" style="shape-rendering:geometricPrecision; text-rendering:geometricPrecision; image-rendering:optimizeQuality; fill-rule:evenodd; clip-rule:evenodd" viewBox="0 0 1707 1707" xmlns:xlink="http://www.w3.org/1999/xlink">
 <defs>
  <style type="text/css">
   
    .str0 {stroke:black;stroke-width:46.6654;stroke-linecap:round;stroke-linejoin:round}
    .fil0 {fill:none}
   
  </style>
 </defs>
 <g id="Layer_x0020_1">
  <metadata id="CorelCorpID_0Corel-Layer"></metadata>
  <g id="_530901112">
   <g>
    <g>
     <path class="fil0 str0" d="M854 739c0,-42 -34,-76 -76,-76" id="id_101" style="stroke: rgb(255, 255, 255);"></path>
     <path class="fil0 str0" d="M854 960c0,42 -34,76 -76,76" id="id_102" style="stroke: rgb(255, 255, 255);"></path>
     <path class="fil0 str0" d="M739 415c-63,0 -115,52 -115,115 0,4 1,7 1,11 -5,-1 -10,-1 -14,-1 -69,0 -125,55 -125,124 0,35 15,67 38,89 -62,8 -110,60 -110,124 0,43 23,82 56,104 -11,18 -17,40 -17,63 0,69 56,124 124,124 17,0 33,-3 48,-9 0,3 -1,6 -1,9 0,64 52,115 115,115 63,0 115,-51 115,-115 0,-248 0,-436 0,-638 0,-63 -52,-115 -115,-115z" id="id_103" style="stroke: rgb(255, 255, 255);"></path>
     <path class="fil0 str0" d="M701 616c0,-41 -34,-75 -76,-75" id="id_104" style="stroke: rgb(255, 255, 255);"></path>
     <path class="fil0 str0" d="M625 1159c40,-11 64,-52 54,-93" id="id_105" style="stroke: rgb(255, 255, 255);"></path>
     <g>
      <path class="fil0 str0" d="M644 930c21,-36 9,-83 -27,-104" id="id_106" style="stroke: rgb(255, 255, 255);"></path>
      <path class="fil0 str0" d="M653 877c5,-20 17,-38 36,-49" id="id_107" style="stroke: rgb(255, 255, 255);"></path>
     </g>
    </g>
    <g>
     <path class="fil0 str0" d="M854 739c0,-42 34,-76 76,-76" id="id_108" style="stroke: rgb(255, 255, 255);"></path>
     <path class="fil0 str0" d="M854 960c0,42 34,76 76,76" id="id_109" style="stroke: rgb(255, 255, 255);"></path>
     <path class="fil0 str0" d="M969 415c63,0 114,52 114,115 0,4 0,7 0,11 4,-1 9,-1 14,-1 69,0 124,55 124,124 0,35 -14,67 -37,89 61,8 109,60 109,124 0,43 -22,82 -56,104 11,18 18,40 18,63 0,69 -56,124 -125,124 -17,0 -33,-3 -47,-9 0,3 0,6 0,9 0,64 -51,115 -114,115 -64,0 -115,-51 -115,-115 0,-248 0,-436 0,-638 0,-63 51,-115 115,-115z" id="id_110" style="stroke: rgb(255, 255, 255);"></path>
     <path class="fil0 str0" d="M1007 616c0,-41 34,-75 76,-75" id="id_111" style="stroke: rgb(255, 255, 255);"></path>
     <path class="fil0 str0" d="M1083 1159c-41,-11 -65,-52 -54,-93" id="id_112" style="stroke: rgb(255, 255, 255);"></path>
     <g>
      <path class="fil0 str0" d="M1063 930c-21,-36 -8,-83 28,-104" id="id_113" style="stroke: rgb(255, 255, 255);"></path>
      <path class="fil0 str0" d="M1055 877c-5,-20 -17,-38 -36,-49" id="id_114" style="stroke: rgb(255, 255, 255);"></path>
     </g>
    </g>
   </g>
   <line class="fil0 str0" x1="854" y1="225" x2="854" y2="530" id="id_115" style="stroke: rgb(255, 255, 255);"></line>
   <circle class="fil0 str0" cx="854" cy="129" r="96" id="id_116" style="stroke: rgb(255, 255, 255);"></circle>
   <line class="fil0 str0" x1="1324" y1="380" x2="1151" y2="552" id="id_117" style="stroke: rgb(255, 255, 255);"></line>
   <circle class="fil0 str0" transform="matrix(1.00237 1.00237 -1.00237 1.00237 1392.04 311.276)" r="68" id="id_118" style="stroke: rgb(255, 255, 255);"></circle>
   <line class="fil0 str0" x1="1491" y1="849" x2="1290" y2="849" id="id_119" style="stroke: rgb(255, 255, 255);"></line>
   <circle class="fil0 str0" transform="matrix(3.72454E-014 1.40661 -1.40661 3.72454E-014 1587.36 849.411)" r="68" id="id_120" style="stroke: rgb(255, 255, 255);"></circle>
   <line class="fil0 str0" x1="1324" y1="1320" x2="1167" y2="1163" id="id_121" style="stroke: rgb(255, 255, 255);"></line>
   <circle class="fil0 str0" transform="matrix(-0.994624 0.994624 -0.994624 -0.994624 1391.82 1387.45)" r="68" id="id_122" style="stroke: rgb(255, 255, 255);"></circle>
   <line class="fil0 str0" x1="854" y1="1482" x2="854" y2="1168" id="id_123" style="stroke: rgb(255, 255, 255);"></line>
   <circle class="fil0 str0" cx="854" cy="1578" r="96" id="id_124" style="stroke: rgb(255, 255, 255);"></circle>
   <line class="fil0 str0" x1="384" y1="1319" x2="540" y2="1163" id="id_125" style="stroke: rgb(255, 255, 255);"></line>
   <circle class="fil0 str0" transform="matrix(-0.994624 -0.994624 0.994624 -0.994624 315.637 1387.23)" r="68" id="id_126" style="stroke: rgb(255, 255, 255);"></circle>
   <line class="fil0 str0" x1="215" y1="849" x2="418" y2="849" id="id_127" style="stroke: rgb(255, 255, 255);"></line>
   <circle class="fil0 str0" transform="matrix(-1.11892E-013 -1.40661 1.40661 -1.11892E-013 119.298 849.096)" r="68" id="id_128" style="stroke: rgb(255, 255, 255);"></circle>
   <line class="fil0 str0" x1="384" y1="379" x2="557" y2="552" id="id_129" style="stroke: rgb(255, 255, 255);"></line>
   <circle class="fil0 str0" transform="matrix(0.994624 -0.994624 0.994624 0.994624 315.86 311.053)" r="68" id="id_130" style="stroke: rgb(255, 255, 255);"></circle>
  </g>
 </g>
</svg>