<svg xmlns="http://www.w3.org/2000/svg" xml:space="preserve" width="512px" height="512px" version="1.1" style="shape-rendering:geometricPrecision; text-rendering:geometricPrecision; image-rendering:optimizeQuality; fill-rule:evenodd; clip-rule:evenodd" viewBox="0 0 512 512" xmlns:xlink="http://www.w3.org/1999/xlink">
 <defs>
  <style type="text/css">
   
    .fil0 {fill:black}
   
  </style>
 </defs>
 <g id="Layer_x0020_1">
  <metadata id="CorelCorpID_0Corel-Layer"></metadata>
  <g id="_291396592">
   <g>
    <g>
     <g>
      <path class="fil0" d="M164 440c-1,0 -1,0 -2,0 -3,-1 -6,-5 -5,-9l31 -117c1,-3 5,-6 9,-5 4,1 6,5 5,9l-31 117c-1,3 -4,5 -7,5zm55 -206c-1,0 -1,0 -2,0 -3,-1 -6,-5 -5,-9l31 -118c1,-3 5,-6 9,-5 3,1 6,5 5,9l-31 118c-1,3 -4,5 -7,5z" id="id_101" style="fill: rgb(255, 255, 255);"></path>
     </g>
     <g>
      <g>
       <path class="fil0" d="M261 371c-2,0 -5,-1 -6,-3l-31 -53c-2,-4 -1,-8 3,-10 3,-2 7,-1 9,2l31 53c2,4 1,8 -2,10 -2,1 -3,1 -4,1zm-77 -133c-2,0 -5,-1 -6,-3l-89 -153c-2,-4 -1,-8 2,-10 4,-2 8,-1 10,2l89 153c2,4 1,8 -2,10 -2,1 -3,1 -4,1z" id="id_102" style="fill: rgb(255, 255, 255);"></path>
      </g>
      <g>
       <path class="fil0" d="M115 331c-2,0 -5,-1 -6,-3 -2,-4 -1,-8 3,-10l52 -30c3,-2 7,-1 9,3 2,3 1,7 -2,9l-52 30c-2,1 -3,1 -4,1zm132 -76c-2,0 -5,-1 -6,-3 -2,-4 -1,-8 3,-10l154 -89c3,-2 7,-1 9,3 2,3 1,7 -2,9l-154 89c-2,1 -3,1 -4,1z" id="id_103" style="fill: rgb(255, 255, 255);"></path>
      </g>
     </g>
     <g>
      <g>
       <path class="fil0" d="M261 118c-5,0 -9,-1 -13,-2 -11,-3 -21,-11 -26,-21 -6,-10 -7,-21 -4,-32 3,-11 11,-21 21,-27 10,-6 21,-7 32,-4 12,3 21,11 27,21 6,10 7,22 4,33 -3,11 -11,21 -21,26 -6,4 -13,6 -20,6zm-2 -73c-4,0 -9,1 -13,3 -7,4 -12,11 -14,19 0,0 0,0 0,0 -2,7 -2,15 2,21 4,7 10,12 18,14 0,0 0,0 0,0 8,3 16,2 23,-2 6,-4 11,-10 13,-18 0,0 0,0 0,0 3,-7 2,-15 -2,-22 -4,-7 -11,-12 -19,-14 0,0 0,0 0,0 -3,-1 -5,-1 -8,-1z" id="id_104" style="fill: rgb(255, 255, 255);"></path>
      </g>
      <g>
       <path class="fil0" d="M430 181c-4,0 -7,0 -11,-1 0,0 0,0 0,0 -23,-7 -37,-31 -31,-54 3,-12 10,-21 21,-27 10,-6 22,-7 33,-4 23,6 37,30 31,54 -3,10 -11,20 -21,26 -7,4 -14,6 -22,6zm-7 -15c7,2 15,1 22,-3 7,-4 12,-10 14,-18 4,-16 -5,-32 -21,-36 0,0 0,0 0,0 -7,-2 -15,-2 -22,2 -7,4 -12,11 -14,19 -4,15 5,31 21,36z" id="id_105" style="fill: rgb(255, 255, 255);"></path>
      </g>
      <g>
       <path class="fil0" d="M82 87c-4,0 -8,0 -12,-1 -23,-6 -37,-30 -31,-54 3,-11 11,-20 21,-26 10,-6 22,-8 33,-5 0,0 0,0 0,0 23,7 37,31 31,54 -5,19 -22,32 -42,32zm0 -73c-5,0 -10,1 -15,4 -7,4 -12,11 -14,18 -4,16 5,32 21,36 8,2 16,1 23,-3 7,-4 11,-10 13,-18 4,-15 -5,-31 -21,-36 -2,-1 -4,-1 -7,-1z" id="id_106" style="fill: rgb(255, 255, 255);"></path>
      </g>
      <g>
       <path class="fil0" d="M95 367c-2,0 -5,-1 -8,-1 0,0 0,0 0,0 -15,-4 -25,-21 -21,-37 2,-7 7,-14 14,-18 7,-4 15,-6 23,-4 0,0 0,0 0,0 17,5 26,21 22,38 0,0 0,0 0,0 -5,14 -17,22 -30,22zm-4 -15c9,2 17,-2 20,-11 2,-9 -3,-17 -12,-20 -4,-1 -8,-1 -12,2 -4,2 -6,5 -7,10 0,0 0,0 0,0 -1,4 -1,8 2,12 2,4 5,6 9,7z" id="id_107" style="fill: rgb(255, 255, 255);"></path>
      </g>
      <g>
       <path class="fil0" d="M272 414c-2,0 -5,0 -8,-1 -7,-2 -14,-7 -18,-14 -4,-7 -5,-15 -3,-23 4,-15 21,-25 37,-21 8,2 14,8 18,15 4,7 5,15 3,22 -2,8 -8,15 -15,19 -4,2 -9,3 -14,3zm0 -46c-2,0 -5,1 -8,3 -4,2 -6,5 -7,9 -2,8 3,17 11,19 0,0 0,0 0,0 4,2 8,1 11,-1 4,-2 7,-5 8,-10 0,0 0,0 0,0 2,-4 1,-8 -1,-11 -2,-4 -5,-7 -10,-8 -1,0 -2,-1 -4,-1z" id="id_108" style="fill: rgb(255, 255, 255);"></path>
      </g>
      <g>
       <path class="fil0" d="M154 512c-4,0 -7,0 -11,-1 0,0 0,0 0,0 -23,-7 -37,-31 -31,-54 6,-23 30,-37 54,-31 0,0 0,0 0,0 23,6 37,30 31,54 -3,11 -11,20 -21,26 -7,4 -14,6 -22,6zm-7 -15c7,2 15,1 22,-3 7,-4 12,-10 14,-18 4,-16 -5,-32 -21,-36 -8,-2 -16,-1 -23,3 -6,4 -11,10 -13,18 -4,15 5,31 21,36z" id="id_109" style="fill: rgb(255, 255, 255);"></path>
      </g>
     </g>
    </g>
    <g>
     <path class="fil0" d="M207 324c-5,0 -9,0 -14,-1 0,0 0,0 0,0 -28,-8 -44,-38 -37,-66 4,-13 13,-25 25,-32 12,-7 27,-9 40,-5 13,3 24,12 32,24 7,12 9,27 6,41 0,0 0,0 0,0 -7,24 -29,39 -52,39zm-10 -15c22,5 42,-7 48,-28 3,-10 1,-21 -4,-30 -6,-9 -14,-15 -24,-17 0,0 0,0 0,0 -10,-3 -20,-2 -29,3 -9,6 -16,14 -18,24 0,0 0,0 0,0 -6,21 6,42 27,48zm55 -26l0 0 0 0z" id="id_110" style="fill: rgb(255, 255, 255);"></path>
    </g>
   </g>
  </g>
 </g>
</svg>